<?xml version="1.0" standalone="no"?>
<!DOCTYPE svg PUBLIC "-//W3C//DTD SVG 20010904//EN"
 "http://www.w3.org/TR/2001/REC-SVG-20010904/DTD/svg10.dtd">
<svg version="1.0" xmlns="http://www.w3.org/2000/svg"
 width="243.000000pt" height="243.000000pt" viewBox="0 0 243.000000 243.000000"
 preserveAspectRatio="xMidYMid meet">
<metadata>
Created by potrace 1.14, written by Peter Selinger 2001-2017
</metadata>
<g transform="translate(0.000000,243.000000) scale(0.100000,-0.100000)"
fill="#000000" stroke="none">
<path d="M1560 1553 c-77 -29 -58 -133 25 -133 69 0 101 78 49 119 -27 21 -45
24 -74 14z"/>
<path d="M49 1460 c-1 -34 -1 -425 0 -473 l1 -38 63 3 62 3 2 95 c0 52 1 103
2 113 1 12 26 -14 69 -70 120 -158 100 -143 186 -143 44 0 76 4 76 10 0 6 -3
10 -7 10 -5 0 -19 17 -33 37 -14 20 -30 41 -35 47 -6 6 -38 46 -73 90 l-62 79
33 41 c125 154 167 209 167 215 0 5 -107 6 -141 2 -4 -1 -26 -27 -50 -58 -23
-32 -45 -60 -49 -63 -3 -3 -21 -26 -40 -52 -18 -27 -35 -46 -38 -43 -3 2 -4
52 -4 110 0 58 -3 105 -6 106 -4 0 -33 2 -65 2 -54 2 -57 1 -58 -23z"/>
<path d="M665 1356 c-104 -52 -142 -176 -91 -296 29 -71 101 -113 191 -113 80
-1 136 28 176 91 l30 47 -65 3 c-55 2 -71 -1 -95 -19 -47 -34 -108 -15 -125
39 -7 21 -6 21 141 24 l148 3 -1 40 c-1 22 -2 47 -3 55 0 9 -13 35 -28 58 -56
86 -181 116 -278 68z m143 -96 c17 -11 32 -28 32 -38 0 -16 -10 -18 -79 -19
-74 -1 -78 0 -73 19 5 19 56 58 77 58 6 0 25 -9 43 -20z"/>
<path d="M1014 1368 c-3 -5 8 -45 25 -91 16 -45 49 -137 72 -204 l43 -123 82
0 c69 0 82 3 87 18 3 9 33 96 67 192 85 239 85 216 4 214 l-67 -1 -45 -146
c-25 -81 -47 -145 -49 -143 -2 1 -22 65 -44 142 -23 76 -44 141 -46 144 -7 8
-124 6 -129 -2z"/>
<path d="M1520 1163 l0 -213 65 0 65 0 0 210 c0 116 -3 211 -7 211 -5 1 -34 2
-65 3 l-58 2 0 -213z"/>
<path d="M1752 1370 c-4 -3 -8 -99 -8 -213 l1 -208 64 3 65 3 1 126 c1 101 4
131 18 152 27 41 79 47 117 14 23 -19 23 -16 25 -172 l2 -120 65 -3 65 -3 -1
153 c-1 134 -4 158 -22 193 -46 89 -177 110 -252 41 l-23 -21 5 28 c3 17 0 27
-7 28 -41 4 -109 4 -115 -1z"/>
<path d="M2290 1078 c-35 -11 -53 -43 -45 -79 11 -51 80 -71 121 -35 63 53 4
141 -76 114z"/>
</g>
</svg>
